<?xml version="1.0" encoding="UTF-8"?>
<svg id="Layer_1" data-name="Layer 1" xmlns="http://www.w3.org/2000/svg" viewBox="0 0 1366 768">
  <defs>
    <style>
      .cls-1 {
        fill: #fff;
        stroke-width: 0px;
      }
    </style>
  </defs>
  <path class="cls-1" d="M537.75,500.6c-40.87,0-67.99-9.92-100.54-31.26-23.87-15.91-45.21-26.76-68.71-33.27,13.02-25.68,23.15-54.25,31.1-79.2,33.27-18.08,83.54-65.1,83.54-107.05,0-16.27-12.29-26.04-27.85-26.04-40.87,0-58.22,55.33-68.35,86.8-1.98,5.95-3.97,12.24-6.07,18.75-12.82,4.46-26.27,6.84-39.92,6.84-23.5,0-60.03-5.78-60.03-36.16,0-9.57,3.38-18.51,8.72-26.53h-29.44c-3.6,8.72-5.68,17.99-5.68,27.62,0,46.65,48.1,61.48,87.52,61.48,9.81,0,19.44-1.05,29.02-3.15l-3.65,11.19c-7.59,20.62-15.91,41.59-25.68,60.03-9.4-1.09-19.53-1.81-30.02-1.81-32.19,0-81.73,15.91-81.73,54.97,0,21.7,20.97,31.82,40.14,31.82,37.61,0,65.46-26.04,84.99-55.69,21.34,4.7,40.87,13.74,61.84,27.49,39.78,26.04,70.88,39.57,120.79,39.57h5.57l-.54-26.4h-5.02ZM457.11,250.91c3.38,18.76-29.66,53.16-44.49,65.46,8.32-26.04,20.98-57.87,36.17-65.1,0,0,7.26-4.31,8.32-.36ZM269.05,489.23c-3.98,0-12.66-.72-12.66-6.51,0-15.55,32.19-26.76,44.85-26.76,3.98,0,7.59-.72,11.57-.72,4.34,0,8.68.36,13.02.36-14.1,18.81-32.19,33.63-56.78,33.63Z"/>
  <path class="cls-1" d="M620,485.34c-4.46-1.46-10.3-2.32-17.59-2.32h-29.61v61.19h13.56v-19.05h17.25c19.48.08,29.09-7.29,29.09-20.77,0-9.61-3.86-15.96-12.7-19.05ZM602.84,513.58h-16.48v-18.97h16.14c11.24,0,16.39,1.72,16.39,9.7,0,6.78-4.46,9.27-16.05,9.27Z"/>
  <path class="cls-1" d="M709.68,540.44v-5.15c0-10.39-3.69-15.1-12.19-17.08,8.58-2.32,12.79-7.12,12.79-16.05,0-12.96-8.41-19.14-29.01-19.14h-30.47v61.19h13.65v-20.25h16.22c7.3,0,11.33,1.2,13.05,4.55.94,1.72,1.37,3.95,1.37,6.95v4.81c0,1.46.26,3.35,1.63,3.95h14.42c-1.29-.77-1.46-2.41-1.46-3.78ZM696.12,503.88c0,4.72-2.66,6.95-7.38,7.73-2.32.43-4.98.6-8.07.6h-16.22v-17.51h16.65c10.39,0,15.02,1.55,15.02,8.33v.86Z"/>
  <polygon class="cls-1" points="727.77 495.3 743.4 495.3 743.4 531.43 727.77 531.43 727.77 544.22 772.06 544.22 772.06 531.43 756.44 531.43 756.44 495.3 772.06 495.3 772.06 483.02 727.77 483.02 727.77 495.3"/>
  <polygon class="cls-1" points="840.54 525.59 839.94 524.56 804.92 483.02 791.28 483.02 791.28 544.22 804.49 544.22 804.49 501.05 805.27 502.25 840.63 544.22 853.76 544.22 853.76 483.02 840.54 483.02 840.54 525.59"/>
  <polygon class="cls-1" points="871.85 494.87 892.79 494.87 892.79 544.22 906.87 544.22 906.87 494.87 928.75 494.87 928.75 483.02 871.85 483.02 871.85 494.87"/>
  <path class="cls-1" d="M1118.63,396.7c-19.86,18.82-40.45,37.63-69.73,37.12-15.19-.27-27.41-4.46-31.9-16.47,8.69-.57,17.4-2.23,25.77-4.98,22.93-8.28,55.22-34.48,55.68-60.88.4-23.14-19.98-36.16-41.32-36.53-37.05-.65-64.29,47.84-68.33,82.25l-.07-.05c-12.29,15.91-32.55,36.53-54.25,36.53-25.68,0-30.02-24.96-30.02-45.57,0-21.7,13.02-46.65,37.61-46.65,8.32,0,10.85,7.96,10.85,14.82,0,3.26-.72,6.51-1.45,9.77l26.4,3.26c.72-4.34,1.44-8.68,1.44-13.02,0-22.42-14.1-41.23-37.61-41.23-39.78,0-63.65,36.89-63.65,73.42,0,10.36,1.22,20.66,3.94,30.09-7.56,6.33-16.14,11.3-25.46,13.3-4.34,1.09-9.04,1.09-13.38,1.81-1.09-2.9-1.09-5.79-1.09-8.68,0-27.13,13.38-66.18,22.42-92.58l-25.31-7.96c-6.87,20.98-15.55,45.93-20.25,70.16-15.55,15.55-36.89,39.06-59.67,39.06-1.09-3.26-1.09-6.51-1.09-9.77,0-24.96,14.47-66.55,22.06-91.5l-25.32-7.96c-5.71,19.02-13.91,43.67-18.86,66.75-13.28,16.68-37.89,35.24-59.75,35.24-1.45,0-2.9-.36-4.34-.72.36-.36,0-2.17,0-2.89,0-7.23,2.89-15.55,4.7-22.42,5.06-20.62,10.85-41.23,17-61.84h30.38l-1.09-26.4h-21.7c5.06-16.63,10.13-33.63,15.19-50.27l-24.95-7.96c-6.15,19.53-11.94,38.69-17.72,58.22h-22.78l1.09,26.4h14.1c-1.45,4.7-2.53,9.77-3.98,14.47-2.81,9.75-7.18,23.5-10.74,36.99l-.14-.1c-13.02,17-38.34,36.53-60.76,36.53-1.45,0-2.9-.36-4.34-.72.36-.36,0-2.17,0-2.89,0-7.23,2.89-15.55,4.7-22.42,5.06-20.62,10.85-41.23,17-61.84h30.38l-1.09-26.4h-21.7c5.06-16.63,10.13-33.63,15.19-50.27l-24.95-7.96c-6.15,19.53-11.94,38.69-17.72,58.22h-22.78l1.09,26.4h14.1c-1.45,4.7-2.53,9.77-3.98,14.47-3.53,12.22-9.49,30.71-13.24,47.12-18.17,17.58-37.5,33.89-64.52,33.89-15.19,0-27.49-3.98-32.19-15.91,8.68-.72,17.36-2.53,25.68-5.43,22.78-8.68,54.61-35.44,54.61-61.84,0-23.15-20.61-35.81-41.95-35.81-39.78,0-67.27,56.42-67.27,90.78,0,37.25,27.85,54.61,62.2,54.61,24.55,0,44.51-10.2,62.32-24.19,4.5,11.06,15.3,16.6,29.19,16.6,18.55,0,38.47-8.98,55.09-21.38,3.1,14.25,14.89,21.38,30.65,21.38,18.54,0,38.45-8.97,55.06-21.37,1.52,15.02,8.72,28.6,26.44,28.6,22.78,0,41.23-11.57,57.5-26.04,2.17,14.1,10.85,26.04,27.12,26.04,19.22,0,36.38-6.76,51.01-17.55,8.95,10.72,22.05,17.55,40.31,17.55,22.97,0,43.17-12.82,59.3-29,9.64,19.26,30.91,28.71,55.73,29.14,35.8.63,62.21-20.61,86.49-43.7l-17.38-19.84ZM494.37,345.45c3.25-1.81,6.51-3.98,10.48-3.98,5.06,0,10.49,1.08,14.1,4.7.36.36.36,1.44.72,1.81.36,1.09.72,1.81.72,2.9,0,5.78-3.98,10.12-7.59,14.47-14.1,16.27-27.49,24.23-47.02,26.4,3.98-17.72,15.19-37.97,28.57-46.29ZM1046.11,345.15c3.28-1.75,6.58-3.86,10.55-3.79,5.06.09,10.47,1.27,14.02,4.95.36.37.34,1.45.69,1.82.34,1.09.69,1.82.67,2.91-.1,5.78-4.15,10.05-7.84,14.33-14.39,16.02-27.9,23.74-47.47,25.57,4.29-17.65,15.85-37.7,29.38-45.78Z"/>
</svg>