<?xml version="1.0" encoding="UTF-8"?>
<svg id="Layer_1" data-name="Layer 1" xmlns="http://www.w3.org/2000/svg" viewBox="0 0 768 768">
  <defs>
    <style>
      .cls-1 {
        fill: #00a175;
        stroke-width: 0px;
      }
    </style>
  </defs>
  <path class="cls-1" d="M372.34,642.48c-11.68,0-23.31-4.29-32.35-12.79-3.18-2.99-7.93-5.78-12.96-8.73-11.14-6.54-25.01-14.67-32.04-31.28-5.65-13.35-7.28-24.15-8.59-32.82-1.52-10.04-2.52-16.67-8.84-24.66-8.02-10.13-23.84-21.53-49.77-35.89-24.14-13.37-39.63-29.08-47.36-48.01-6.88-16.87-6.73-33.45-6.58-49.47.19-20.6.36-38.39-13.75-55.93-22.73-28.26-33.76-54.56-33.74-80.4.03-26.6,12.28-52.37,36.4-76.62,22.8-22.92,49.97-31.57,80.74-25.72,22.32,4.24,45.72,15.84,71.56,35.45,16.92,12.85,25.01,22.36,31.51,30.01,8.64,10.16,13.39,15.76,36.52,24.03,19.65,7.03,35.41,23.77,45.57,48.41,12.4,30.07,14.01,67,3.92,89.8-1.01,2.28-2.02,4.46-3.01,6.58-4.66,10.03-8.34,17.95-7.54,27.31.96,11.28,8.49,25.38,23.02,43.08,11.7,14.26,16.06,29.54,12.98,45.43-2.53,13.02-9.59,24.35-15.82,34.34-2.53,4.06-4.92,7.89-6.82,11.53-8.15,15.54-7.86,39.02-7.05,46.76l.69,6.66-26.13,21.84c-8.87,7.42-19.74,11.1-30.56,11.1ZM225.71,182.94c-17.42,0-32.84,6.86-46.48,20.56-19.63,19.73-29.18,39.04-29.2,59.02-.02,19.85,9.22,41,28.24,64.65,19.68,24.47,19.45,49.66,19.24,71.89-.27,29.27-.49,52.38,41.42,75.6,61.28,33.94,66.84,51.9,70.84,78.4,1.21,8.02,2.46,16.32,6.88,26.75,3.86,9.13,12.69,14.31,22.03,19.78,5.93,3.48,12.07,7.08,17.2,11.91,8.73,8.22,22.87,8.55,32.19.76l16.35-13.66c-.37-11.56.31-35.35,10.21-54.22,2.33-4.45,5.08-8.86,7.73-13.12,12.72-20.42,19.22-32.84,4.69-50.54-18.06-22.01-27.14-40.07-28.57-56.82-1.37-16.09,4.3-28.32,9.79-40.13.94-2.01,1.9-4.09,2.82-6.16,6.19-13.98,6.83-43.23-4.17-69.91-9.42-22.86-22.35-31.58-31.53-34.86-27.62-9.88-35.68-18.21-46.55-31-6.04-7.11-12.89-15.16-27.74-26.44-28.53-21.66-53.54-32.48-75.41-32.48Z"/>
  <path class="cls-1" d="M381.01,621.86c-2-2.77-49.01-68.45-43.03-127.35,2.7-26.6-8.71-71.56-29.07-114.55-24.18-51.04-56.9-91.91-92.14-115.09l11.13-18.23c38.43,25.27,73.83,69.24,99.67,123.8,22.31,47.1,34.22,95.5,31.09,126.33-5.12,50.41,38.54,111.51,38.98,112.13l-16.63,12.96Z"/>
  <g>
    <path class="cls-1" d="M379.73,480.29h0s0,0,0,0l-3.6-10.12c-18.77,7.19-29.19,30.51-34.78,43.04-.35.79-.68,1.53-.99,2.21l9.41,4.59h0l9.41,4.59c.32-.71.67-1.49,1.04-2.32,4.02-9.01,12.4-27.76,23.11-31.86l-3.6-10.12Z"/>
    <path class="cls-1" d="M333.44,428.05c-.35.79-.68,1.53-.99,2.21l9.41,4.59s0,0,0,0h0s9.41,4.59,9.41,4.59c.32-.71.67-1.49,1.04-2.32,4.02-9.01,12.4-27.76,23.11-31.86l-3.6-10.12h0s0,0,0,0l-3.6-10.12c-18.77,7.19-29.19,30.51-34.78,43.03Z"/>
    <path class="cls-1" d="M340.58,492.22l8.13-6.73h0s0,0,0,0l8.14-6.72c-.46-.6-11.44-14.82-27.85-27.68-22.99-18.02-45.69-24.64-65.63-19.15l2.67,10.43s0,0,0,0h0s2.67,10.43,2.67,10.43c5.52-1.52,11.17-1.45,16.7-.33l32.37,16.88c13.51,10.88,22.72,22.74,22.81,22.87Z"/>
    <path class="cls-1" d="M322.31,407.8h0s10.03-18.9,10.03-18.9c-.52-.29-3.5-1.98-8.25-4.34l7.22-2.47c-.06-.18-3.08-10.15-.48-23.6l5.5-15.81c3.53-6.82,8.82-13.87,16.68-20.58l-13.22-16.66c-22.07,18.86-28.64,40.31-30.28,54.98-.76,6.79-.56,12.75-.05,17.46-21.23-8.89-53.26-18.79-78.79-11.67l5.4,20.84c13.29-3.71,32.2-1.43,54.67,6.6,17.66,6.31,31.23,13.97,31.57,14.16Z"/>
    <path class="cls-1" d="M286.34,340.11l14.93-15.03c-.24-.26-1.74-1.81-4.63-4.05-2.67-9.69-9.18-41.3,10.89-65.2l-7.84-7.09h0s0,0,0,0l-7.84-7.09c-18.59,22.14-20.46,48.27-18.63,66.64-15.14-5.85-36.95-10.74-66.76-9.75l.33,10.79h0,0s.33,10.79.33,10.79c57.02-1.88,79.1,19.87,79.32,20.09l-.09-.1Z"/>
  </g>
  <path class="cls-1" d="M622.12,268.88l-100.77-113.36-85.76,76.74-38.58,34.48,16.56,19.96,38.59-34.48,67.18-60.11,84.23,94.75.23.25s.02.03.04.04c-5.01,9.57-22.25,36.41-68.78,64.37l-17.19,10.33,16.25,11.85c.39.28,36.11,26.52,63.84,61.97l-210.43,175.9,15.92,20.51,213.32-178.31c6.88-5.75,11.25-13.93,12.3-23.02l12.07-104.16c2.44-21.1-4.49-42.12-19.01-57.71ZM563.75,364.06c26.36-18.09,42.62-35.52,52.37-48.68.17,2.67.12,5.37-.19,8.07l-9.51,82.07c-15.46-17.61-31.44-32.05-42.67-41.45Z"/>
</svg>